<?xml version="1.0" encoding="UTF-8" standalone="no"?>
<!-- Created with Inkscape (http://www.inkscape.org/) -->

<svg
   viewBox="0 0 48 47.999998"
   version="1.1"
   id="svg1"
   xml:space="preserve"
   inkscape:version="1.4 (1:1.4+202410161351+e7c3feb100)"
   sodipodi:docname="favicon.svg"
   width="48"
   height="48"
   xmlns:inkscape="http://www.inkscape.org/namespaces/inkscape"
   xmlns:sodipodi="http://sodipodi.sourceforge.net/DTD/sodipodi-0.dtd"
   xmlns="http://www.w3.org/2000/svg"
   xmlns:svg="http://www.w3.org/2000/svg"><sodipodi:namedview
     id="logo-main"
     pagecolor="#ffffff"
     bordercolor="#000000"
     borderopacity="0"
     inkscape:showpageshadow="2"
     inkscape:pageopacity="0.0"
     inkscape:pagecheckerboard="true"
     inkscape:deskcolor="#d1d1d1"
     inkscape:document-units="mm"
     inkscape:zoom="8"
     inkscape:cx="6.125"
     inkscape:cy="34.4375"
     inkscape:window-width="1920"
     inkscape:window-height="1048"
     inkscape:window-x="0"
     inkscape:window-y="32"
     inkscape:window-maximized="1"
     inkscape:current-layer="layer1" /><defs
     id="defs1" /><g
     inkscape:label="Layer 1"
     inkscape:groupmode="layer"
     id="layer1"><g
       id="g14"
       inkscape:label="."
       transform="matrix(2.0757982,0,0,2.0757982,-128.3074,2.4730969)"><path
         style="fill:#ffa857;fill-opacity:1;stroke-width:0.264583"
         d="m 81.898801,15.022639 c 0,0 -0.437764,-0.04531 -0.817787,0.07015 -0.380027,0.115468 -0.703046,0.163702 -1.074298,0.450182 -0.371256,0.286479 -0.818515,0.64604 -1.040683,1.233616 -0.222168,0.587575 -0.295249,0.856515 -0.342022,1.356392 -0.04677,0.499878 -0.03215,1.221923 0.105238,1.63118 0.137393,0.409256 0.368332,1.008525 0.651888,1.289158 0.283557,0.280633 0.572958,0.572958 1.034833,0.736661 0.461876,0.163703 0.552498,0.213398 1.324237,0.190012 0.771742,-0.02339 1.093301,0.02046 1.490864,-0.216321 0.397563,-0.236784 0.952981,-0.660657 1.245309,-1.259925 0.292325,-0.599269 0.415102,-0.970523 0.456028,-1.289158 0.04093,-0.318636 0.08185,-1.221923 0.04093,-1.371009 -0.04093,-0.149087 -0.0877,-0.619732 -0.356638,-1.087453 -0.268941,-0.467722 -0.719121,-1.140072 -1.125455,-1.327161 -0.406334,-0.187088 -0.558342,-0.309865 -0.964676,-0.350791 -0.406334,-0.04093 -0.5905,-0.05846 -0.5905,-0.05846 l -0.02045,0.818513 c 0,0 0.45603,-0.03508 0.824359,0.146163 0.368332,0.181242 0.730817,0.41218 0.914983,0.757124 0.184165,0.344945 0.380023,0.704506 0.406333,1.052374 0.0263,0.347868 0.108159,0.944213 -0.01754,1.452861 -0.125698,0.508647 -0.154932,0.862361 -0.456027,1.145918 -0.301096,0.283556 -0.514493,0.532033 -0.909135,0.66358 -0.394639,0.131547 -0.771739,0.27771 -1.29208,0.154933 -0.52034,-0.122777 -1.005602,-0.304019 -1.280387,-0.628502 -0.274788,-0.324481 -0.593424,-0.77174 -0.640194,-1.330083 -0.04677,-0.558343 -0.105238,-1.07576 0.01754,-1.476246 0.122777,-0.400487 0.298172,-0.83313 0.482338,-1.066991 0.184163,-0.23386 0.622655,-0.686966 1.020217,-0.774664 0.397563,-0.0877 0.540803,-0.114007 0.713275,-0.114007 0.172474,0 0.209928,0.01711 0.209928,0.01711 z"
         id="path13" /><path
         style="fill:#ffa857;fill-opacity:1;stroke-width:0.264583"
         d="m 81.74488,15.820223 c 0.228409,0.0186 0.228409,0.0186 0.228409,0.0186 l 0.05891,-0.80822 c 0,0 -0.07441,-0.0124 -0.165364,-0.0072 -0.09095,0.0052 -0.113689,0.04444 -0.113689,0.04444 z"
         id="path14" /></g><g
       id="g2"
       inkscape:label="C"
       style="display:inline"
       transform="matrix(2.2518464,0,0,2.2518464,-0.0951463,-0.79699256)"><path
         style="fill:#ffffff;stroke-width:0.264583"
         d="m 1.6516421,17.861121 c 0,0 -0.4180262,-0.590498 -0.5291101,-0.847745 C 1.0114481,16.756129 0.68404295,15.984388 0.59634513,15.703755 0.50864732,15.423122 0.29524931,14.727386 0.2514004,14.446753 0.20755149,14.16612 0.07600477,13.62824 0.07600477,13.35053 c 0,-0.277709 0.0029233,-3.7885451 0.0029233,-3.7885451 0,0 0.05261869,-0.4852614 0.11693042,-0.7191221 C 0.26017018,8.6090018 0.43848906,7.6297096 0.56418926,7.3052278 0.68988947,6.9807459 0.85943857,6.343475 1.1839205,5.7646696 1.5084024,5.185864 2.2489583,3.7951171 3.0179036,3.1171224 3.7868489,2.4391276 4.9361328,1.5048177 6.135026,1.2567708 7.3339192,1.0087239 8.2682291,0.89296874 8.9958332,1.0417969 9.7234374,1.190625 10.252604,1.372526 10.252604,1.372526 l -4.4235025,7.036263 -1.4882812,7.65638 z"
         id="path2" /><path
         style="fill:#ffffff;stroke-width:0.264583"
         d="m 10.120312,0.63665364 4.034896,1.86035156 -2.244384,6.0067594 c 0,0 -0.347706,-0.4215707 -0.500668,-0.5703988 C 11.257194,7.7845377 11.100098,7.5778319 10.843782,7.3711262 10.587467,7.1644205 10.236068,6.8543619 9.8763996,6.7303385 9.5167317,6.606315 9.1736001,6.5029622 8.7560546,6.5236327 8.338509,6.5443046 8.2103515,6.5194973 7.8713541,6.6352538 7.5323567,6.751009 7.0486653,6.9163736 6.7096679,7.4041991 6.3706705,7.8920246 6.1474283,8.375716 6.0068684,8.9627603 5.8663085,9.5498046 5.7464192,10.211263 5.7546874,11.290267 c 0.00827,1.079004 0.1198893,2.248958 0.2811198,2.740918 0.1612305,0.491959 0.6573242,1.533756 0.9921875,1.744596 0.3348633,0.21084 0.6655924,0.42168 1.0045898,0.446484 0.3389974,0.02481 0.9425781,0.08682 1.4593425,-0.186035 0.516764,-0.272851 1.248503,-0.756543 1.794206,-1.53789 0.545703,-0.781348 0.587044,-0.888835 0.587044,-0.888835 0,0 0.03721,0.0083 0.09095,0.165365 0.05374,0.157096 2.033985,5.41569 2.033985,5.41569 0,0 -1.159152,1.044249 -2.106289,1.482738 -0.947136,0.438489 -1.531788,0.684042 -2.1222867,0.78928 C 9.1790376,21.567815 8.6060787,21.667206 8.2202082,21.649667 7.8343378,21.632127 7.3373836,21.62628 6.9398202,21.538583 6.5422568,21.450885 5.925449,21.284259 5.5278855,21.120556 5.1303221,20.956854 4.2913464,20.503749 4.0048669,20.30789 3.7183872,20.112032 3.1308119,19.64431 2.7215555,19.199974 2.312299,18.755639 2.0024334,18.399001 1.7568795,18.024824 1.5113256,17.650646 1.1283785,16.305947 1.1576111,16.177323 c 0.029233,-0.128623 0.011693,-0.01169 0.011693,-0.01169 l -0.029233,0.01754"
         id="path1" /></g></g></svg>
